<?xml version="1.0" encoding="utf-8"?>
<!-- Generator: Adobe Illustrator 26.0.1, SVG Export Plug-In . SVG Version: 6.00 Build 0)  -->
<svg version="1.1" id="Calque_1" xmlns="http://www.w3.org/2000/svg" xmlns:xlink="http://www.w3.org/1999/xlink" x="0px" y="0px"
	 viewBox="0 0 30 30" style="enable-background:new 0 0 30 30;" xml:space="preserve">
<style type="text/css">
	.st0{fill-rule:evenodd;clip-rule:evenodd;fill:#232558;}
	.st1{fill-rule:evenodd;clip-rule:evenodd;fill:#FDC300;}
</style>
<g id="_x30_1-Atoms-_x2F_-02-Symboles-_x2F_-01-Profil-_x2F_-02-Small">
	<g id="Group-5">
		<path id="Stroke-1" class="st0" d="M14.5,0C10.9,0,8,2.9,8,6.5s2.9,6.5,6.5,6.5c3.6,0,6.5-2.9,6.5-6.5S18.1,0,14.5,0z M14.5,2
			C17,2,19,4,19,6.5S17,11,14.5,11C12,11,10,9,10,6.5S12,2,14.5,2z"/>
		<path id="Stroke-3" class="st1" d="M10.4,16h0.5l4.1,5.8l4.1-5.8h0.5c5.6,0,10.2,4.2,10.4,9.4l0,0.3V30h-2v-4.3
			c0-4-3.3-7.3-7.6-7.7l-0.3,0L15,25.2L9.9,18l0,0c-4.3,0.2-7.7,3.5-7.8,7.4l0,0.2V30H0v-4.3c0-5.3,4.5-9.5,10.1-9.7L10.4,16z"/>
	</g>
</g>
</svg>
